<svg width="11" height="10" viewBox="0 0 11 10" fill="none" xmlns="http://www.w3.org/2000/svg">
<path d="M7.12844 0.346809C7.36307 0.124259 7.6741 0.000137904 7.99749 1.14844e-07C8.32089 -0.000137675 8.63202 0.123718 8.86685 0.346069L10.0105 1.4497C10.4897 1.90893 10.4897 2.65481 10.0105 3.11627L8.91055 4.17991L3.31534 9.58105L0.903637 9.98917C0.376262 10.0751 -0.0800062 9.6366 0.0118399 9.13293L0.431814 6.80937L6.47514 0.977881L7.12844 0.346809ZM6.4744 1.8282L1.01622 7.09454L0.63032 9.23515C0.626963 9.25429 0.627565 9.27392 0.63209 9.29282C0.636614 9.31172 0.644964 9.32949 0.656625 9.34504C0.668286 9.36059 0.68301 9.37358 0.699888 9.38322C0.716766 9.39285 0.73544 9.39893 0.754757 9.40106L0.795495 9.40032L3.00869 9.02553L8.46984 3.75327L7.23139 2.55852L6.4744 1.8282ZM8.36021 0.714935C8.24393 0.63042 8.1017 0.589326 7.95826 0.598799C7.81482 0.608271 7.67924 0.667711 7.57508 0.766783L6.91586 1.40304L8.91055 3.32737L9.56458 2.69778C9.66793 2.59965 9.73079 2.46639 9.7408 2.32423C9.75081 2.18207 9.70723 2.04131 9.61865 1.92967L9.56458 1.87042L8.42095 0.766783L8.36021 0.714935Z" fill="#696969"/>
</svg>
