<svg width="12" height="10" viewBox="0 0 12 10" fill="none" xmlns="http://www.w3.org/2000/svg">
<path fill-rule="evenodd" clip-rule="evenodd" d="M5.45425 1.30825C3.55546 -1.07277 0.370117 0.00404358 0.370117 2.86545C0.370117 4.90363 2.1883 7.28182 5.82467 10C9.46103 7.28182 11.2792 4.90363 11.2792 2.86545C11.2792 0.00404358 8.09387 -1.07277 6.19508 1.30825C6.0651 1.47124 5.94115 1.65043 5.82467 1.84636C5.70818 1.65043 5.58423 1.47124 5.45425 1.30825ZM5.82467 9.24741C7.43649 8.0107 8.63464 6.86532 9.43892 5.81331C10.304 4.68174 10.6792 3.70379 10.6792 2.86545C10.6792 1.59997 9.94801 0.83772 9.10244 0.648059C8.25782 0.45861 7.13815 0.81117 6.3404 2.15298L5.82467 3.02045L5.30893 2.15298C4.51119 0.81117 3.39151 0.45861 2.54689 0.648059C1.70132 0.83772 0.970117 1.59997 0.970117 2.86545C0.970117 3.70379 1.3453 4.68174 2.21041 5.81331C3.0147 6.86532 4.21284 8.0107 5.82467 9.24741Z" fill="#696969"/>
</svg>
