<svg width="19" height="4" viewBox="0 0 19 4" fill="none" xmlns="http://www.w3.org/2000/svg">
<path d="M0.947631 0.5L0 1.5H1.89526L0.947631 0.5Z" fill="black"/>
<path d="M2.84314 0.5L1.89551 1.5H3.79077L2.84314 0.5Z" fill="black"/>
<path d="M4.73816 0.5L3.79053 1.5H5.68579L4.73816 0.5Z" fill="black"/>
<path d="M6.63318 0.5L5.68555 1.5H7.58081L6.63318 0.5Z" fill="black"/>
<path d="M8.52869 0.5L7.58105 1.5H9.47632L8.52869 0.5Z" fill="black"/>
<path d="M10.4242 0.5L9.47656 1.5H11.3718L10.4242 0.5Z" fill="black"/>
<path d="M12.3192 0.5L11.3716 1.5H13.2668L12.3192 0.5Z" fill="black"/>
<path d="M14.2142 0.5L13.2666 1.5H15.1619L14.2142 0.5Z" fill="black"/>
<path d="M15.9476 0.5L15 1.5H16.8953L15.9476 0.5Z" fill="black"/>
<path d="M17.8431 0.5L16.8955 1.5H18.7908L17.8431 0.5Z" fill="black"/>
<path d="M19 1.5H0V2H19V1.5Z" fill="black"/>
<path d="M19 2.5H0V3.5H19V2.5Z" fill="#BCBEC0"/>
</svg>
