<svg width="38" height="8" viewBox="0 0 38 8" fill="none" xmlns="http://www.w3.org/2000/svg">
<path d="M1.89526 0L0 2H3.79052L1.89526 0Z" fill="black"/>
<path d="M5.68577 0L3.79051 2H7.58104L5.68577 0Z" fill="black"/>
<path d="M9.47632 0L7.58105 2H11.3716L9.47632 0Z" fill="black"/>
<path d="M13.2668 0L11.3716 2H15.1621L13.2668 0Z" fill="black"/>
<path d="M17.0574 0L15.1621 2H18.9526L17.0574 0Z" fill="black"/>
<path d="M20.8479 0L18.9526 2H22.7431L20.8479 0Z" fill="black"/>
<path d="M24.6384 0L22.7431 2H26.5337L24.6384 0Z" fill="black"/>
<path d="M28.4289 0L26.5336 2H30.3241L28.4289 0Z" fill="black"/>
<path d="M31.8953 0L30 2H33.7905L31.8953 0Z" fill="black"/>
<path d="M35.6857 0L33.7905 2H37.581L35.6857 0Z" fill="black"/>
<path d="M38 2H0V3H38V2Z" fill="black"/>
<path d="M38 5H0V8H38V5Z" fill="#BCBEC0"/>
</svg>
