<svg width="19" height="20" viewBox="0 0 19 20" fill="none" xmlns="http://www.w3.org/2000/svg">
<path fill-rule="evenodd" clip-rule="evenodd" d="M9.8309 1.70872C9.15113 1.70872 8.4992 1.97876 8.01853 2.45943C7.53786 2.9401 7.26782 3.59203 7.26782 4.2718C7.26782 4.95157 7.53786 5.6035 8.01853 6.08417C8.4992 6.56484 9.15113 6.83488 9.8309 6.83488C10.5107 6.83488 11.1626 6.56484 11.6433 6.08417C12.1239 5.6035 12.394 4.95157 12.394 4.2718C12.394 3.59203 12.1239 2.9401 11.6433 2.45943C11.1626 1.97876 10.5107 1.70872 9.8309 1.70872ZM5.5591 4.2718C5.5591 3.13885 6.00916 2.0523 6.81028 1.25118C7.6114 0.450063 8.69795 0 9.8309 0C10.9639 0 12.0504 0.450063 12.8515 1.25118C13.6526 2.0523 14.1027 3.13885 14.1027 4.2718C14.1027 5.40475 13.6526 6.4913 12.8515 7.29242C12.0504 8.09354 10.9639 8.5436 9.8309 8.5436C8.69795 8.5436 7.6114 8.09354 6.81028 7.29242C6.00916 6.4913 5.5591 5.40475 5.5591 4.2718ZM2.7101 19.1331L2.6577 19.9852L0.952393 19.8815L1.00479 19.0283V19.0169L1.00707 18.993L1.01391 18.9133C1.05766 18.4903 1.12459 18.0701 1.2144 17.6545C1.38641 16.8571 1.70081 15.7806 2.27152 14.6961C3.43004 12.4942 5.66049 10.2523 9.75914 10.2523C13.8544 10.2523 16.1179 12.4896 17.3117 14.6847C17.9018 15.7681 18.2355 16.8423 18.4223 17.6397C18.5196 18.0545 18.5942 18.4743 18.6456 18.8973L18.6536 18.977L18.6559 19.001L18.657 19.0124L18.7254 19.8644L17.0212 20L16.9528 19.1502V19.1377L16.9472 19.0853C16.9034 18.7305 16.8406 18.3784 16.7592 18.0304C16.5563 17.1493 16.2376 16.299 15.8114 15.5015C14.8363 13.7108 13.0775 11.961 9.75914 11.961C6.44422 11.961 4.72297 13.7062 3.78431 15.4924C3.3731 16.2895 3.07044 17.1381 2.88439 18.0156C2.80584 18.3811 2.74803 18.7508 2.71123 19.1229L2.7101 19.1331Z" fill="#231F20"/>
</svg>
