<svg width="21" height="20" viewBox="0 0 21 20" fill="none" xmlns="http://www.w3.org/2000/svg">
<path fill-rule="evenodd" clip-rule="evenodd" d="M19.6748 5.8345H15.1885V5.50674C15.1874 1.44584 12.9477 0 10.8557 0C8.76361 0 6.52512 1.44584 6.52512 5.50674V5.83217H2.03883L0.713867 20H20.9986L19.6737 5.83217L19.6748 5.8345ZM8.31033 5.50674C8.31033 3.14737 9.24013 1.79335 10.8557 1.79335C12.4747 1.79335 13.4033 3.14621 13.4033 5.50674V5.83217H8.31033V5.50674ZM2.62926 18.2566L3.62879 7.57555H6.52628V8.99H8.30917V7.57787H13.4033V8.99H15.1862V7.57787H18.0849L19.0844 18.2555L2.62926 18.2566Z" fill="#231F20"/>
</svg>
