<svg width="25" height="20" viewBox="0 0 25 20" fill="none" xmlns="http://www.w3.org/2000/svg">
<path d="M6.83743 0.0201721C3.79059 0.245169 1.25937 2.55608 0.785942 5.55604C0.682818 6.2029 0.71563 7.50132 0.851566 8.08257C1.16094 9.40442 1.74218 10.4732 2.76873 11.6075C3.85153 12.8028 6.80461 15.4512 10.2593 18.3246C11.8577 19.6512 12.0686 19.8199 12.2514 19.9137C12.4858 20.0355 12.9686 20.0262 13.2123 19.8996C13.4936 19.759 17.3185 16.5575 19.1888 14.9028C21.031 13.2716 22.5825 11.7716 23.0841 11.1388C23.8528 10.1685 24.3216 9.21693 24.5888 8.08257C24.7247 7.48726 24.7575 6.18884 24.6497 5.53729C24.1763 2.68264 21.9263 0.488916 19.0248 0.0623589C18.5138 -0.01264 17.4217 -0.00326538 16.9389 0.0811081C15.9779 0.249857 15.0217 0.638914 14.2201 1.18734C13.9905 1.34672 13.5592 1.70765 13.2592 1.99358L12.7202 2.5092L12.1811 1.99358C11.8811 1.70765 11.4546 1.3514 11.2249 1.19203C9.91707 0.29673 8.44522 -0.0970135 6.83743 0.0201721ZM8.61865 2.33108C9.09677 2.47639 9.66395 2.74826 10.0202 3.00138C10.1514 3.09513 10.6624 3.56856 11.1499 4.05137C11.642 4.53417 12.1108 4.96073 12.1999 5.00761C12.2889 5.04979 12.4811 5.10136 12.6358 5.11073C13.1233 5.1576 13.2358 5.0826 14.267 4.07481C14.7686 3.57794 15.2889 3.09513 15.4201 3.00138C15.767 2.75295 16.3342 2.47639 16.8217 2.33108C17.2154 2.20921 17.2998 2.19983 18.0638 2.19983C18.8232 2.19983 18.917 2.20921 19.2966 2.32639C20.7685 2.78107 21.8654 3.82169 22.3247 5.19979C22.8216 6.69508 22.5122 8.30288 21.4716 9.67161C21.0497 10.22 19.5498 11.6731 17.8295 13.1872C15.9545 14.8419 12.8045 17.4996 12.7202 17.4996C12.6639 17.4996 10.9811 16.0981 9.25146 14.6122C6.12025 11.9216 4.32496 10.2154 3.75778 9.3763C1.84062 6.55446 3.20466 2.98263 6.49055 2.24202C6.70149 2.19514 6.9968 2.17639 7.49367 2.19045C8.08897 2.20452 8.26241 2.22327 8.61865 2.33108Z" fill="#231F20"/>
</svg>
