<svg width="24" height="24" viewBox="0 0 24 24" fill="none" xmlns="http://www.w3.org/2000/svg">
<path d="M13 3.75C9.00197 3.75 5.74997 7.002 5.74997 11C5.74997 12.66 6.32597 14.27 7.37697 15.562L3.64697 19.292L4.70697 20.352L8.43697 16.622C9.72573 17.6728 11.3371 18.2478 13 18.25C16.998 18.25 20.25 14.998 20.25 11C20.25 7.002 16.998 3.75 13 3.75ZM13 16.75C9.82997 16.75 7.24997 14.17 7.24997 11C7.24997 7.83 9.82997 5.25 13 5.25C16.17 5.25 18.75 7.83 18.75 11C18.75 14.17 16.17 16.75 13 16.75Z" fill="#231F20"/>
</svg>
