<svg width="19" height="20" viewBox="0 0 19 20" fill="none" xmlns="http://www.w3.org/2000/svg">
<path fill-rule="evenodd" clip-rule="evenodd" d="M9.83212 1.70872C9.15235 1.70872 8.50042 1.97876 8.01975 2.45943C7.53908 2.9401 7.26904 3.59203 7.26904 4.2718C7.26904 4.95157 7.53908 5.6035 8.01975 6.08417C8.50042 6.56484 9.15235 6.83488 9.83212 6.83488C10.5119 6.83488 11.1638 6.56484 11.6445 6.08417C12.1252 5.6035 12.3952 4.95157 12.3952 4.2718C12.3952 3.59203 12.1252 2.9401 11.6445 2.45943C11.1638 1.97876 10.5119 1.70872 9.83212 1.70872ZM5.56032 4.2718C5.56032 3.13885 6.01039 2.0523 6.8115 1.25118C7.61262 0.450063 8.69917 0 9.83212 0C10.9651 0 12.0516 0.450063 12.8527 1.25118C13.6539 2.0523 14.1039 3.13885 14.1039 4.2718C14.1039 5.40475 13.6539 6.4913 12.8527 7.29242C12.0516 8.09354 10.9651 8.5436 9.83212 8.5436C8.69917 8.5436 7.61262 8.09354 6.8115 7.29242C6.01039 6.4913 5.56032 5.40475 5.56032 4.2718ZM2.71132 19.1331L2.65892 19.9852L0.953613 19.8815L1.00601 19.0283V19.0169L1.00829 18.993L1.01513 18.9133C1.05888 18.4903 1.12581 18.0701 1.21562 17.6545C1.38763 16.8571 1.70203 15.7806 2.27275 14.6961C3.43126 12.4942 5.66171 10.2523 9.76036 10.2523C13.8556 10.2523 16.1191 12.4896 17.3129 14.6847C17.903 15.7681 18.2367 16.8423 18.4236 17.6397C18.5208 18.0545 18.5954 18.4743 18.6468 18.8973L18.6548 18.977L18.6571 19.001L18.6582 19.0124L18.7266 19.8644L17.0224 20L16.9541 19.1502V19.1377L16.9484 19.0853C16.9046 18.7305 16.8418 18.3784 16.7604 18.0304C16.5575 17.1493 16.2388 16.299 15.8126 15.5015C14.8375 13.7108 13.0787 11.961 9.76036 11.961C6.44544 11.961 4.72419 13.7062 3.78553 15.4924C3.37432 16.2895 3.07166 17.1381 2.88561 18.0156C2.80706 18.3811 2.74925 18.7508 2.71246 19.1229L2.71132 19.1331Z" fill="white"/>
</svg>
