<svg width="79" height="18" viewBox="0 0 79 18" fill="none" xmlns="http://www.w3.org/2000/svg">
<path d="M6.56914 14.6746H3.57755L3.10188 17.3084H0.444443L3.76624 0.691566H6.37651L9.69831 17.3084H7.04087L6.56521 14.6746H6.56914ZM6.11706 12.0643L5.07138 6.10473L4.0257 12.0643H6.11313H6.11706Z" fill="white"/>
<path d="M20.8116 17.3124H18.1542L16.8019 10.6412H15.6147V17.3124H13.0044V0.695496H16.9434C18.0677 0.695496 18.9836 1.02964 19.6991 1.694C20.4893 2.42126 20.8863 3.45122 20.8863 4.77994V6.56074C20.8863 7.90518 20.4893 8.943 19.6991 9.67026C19.589 9.78033 19.4632 9.88254 19.3178 9.98081L20.8116 17.3163V17.3124ZM18.2721 4.77994C18.2721 4.22565 18.1542 3.8286 17.9144 3.59273C17.71 3.40404 17.3837 3.30969 16.9395 3.30969H15.6107V8.03491H16.9395C17.3837 8.03491 17.706 7.94056 17.9144 7.75187C18.1502 7.53172 18.2721 7.13468 18.2721 6.56467V4.78386V4.77994Z" fill="white"/>
<path d="M27.0542 0.695496H24.444V17.3124H27.0542V0.695496Z" fill="white"/>
<path d="M34.5312 17.5011C33.3912 17.5011 32.4753 17.1787 31.7795 16.5261C30.9893 15.7674 30.5923 14.7296 30.5923 13.4166V11.2545H33.2025V13.4166C33.2025 13.9866 33.3205 14.3837 33.5603 14.6038C33.7647 14.7925 34.091 14.8869 34.5352 14.8869C34.9794 14.8869 35.3175 14.7925 35.5101 14.6038C35.746 14.3994 35.8678 14.0024 35.8678 13.4166V12.3709C35.8678 11.6437 35.573 11.0108 34.9912 10.4722C34.8654 10.3621 34.5312 10.1577 33.9927 9.85502C33.2497 9.45798 32.7033 9.11204 32.3534 8.80934C31.7834 8.30223 31.347 7.72435 31.0483 7.07572C30.7495 6.42708 30.5962 5.73127 30.5962 4.98829V4.58338C30.5962 3.27039 30.9932 2.23257 31.7834 1.47386C32.4792 0.825225 33.3991 0.498943 34.5352 0.498943C35.6713 0.498943 36.5912 0.825225 37.287 1.47386C38.0771 2.23257 38.4742 3.27039 38.4742 4.58338V6.03004H35.8639V4.58338C35.8639 3.99765 35.746 3.6006 35.5062 3.39618C35.3175 3.20749 34.9912 3.11314 34.5312 3.11314C34.0713 3.11314 33.7647 3.20749 33.5563 3.39618C33.3205 3.61632 33.1986 4.01337 33.1986 4.58338V4.98829C33.1986 5.71555 33.4895 6.3406 34.0752 6.86344C34.2325 6.98923 34.543 7.18186 35.003 7.43345C35.8246 7.87767 36.3946 8.23933 36.713 8.5263C37.8845 9.57198 38.4702 10.8535 38.4702 12.3709V13.4166C38.4702 14.7296 38.0732 15.7674 37.283 16.5261C36.5872 17.1748 35.6673 17.5011 34.5312 17.5011Z" fill="white"/>
<path d="M49.2258 3.30576H46.5683V17.3124H43.9581V3.30576H41.2967V0.695496H49.2258V3.30576Z" fill="white"/>
<path d="M55.0163 0.695496H52.4061V17.3124H55.0163V0.695496Z" fill="white"/>
<path d="M66.9591 17.3124H65.4377L61.4516 8.88403V17.3124H58.8413V0.695496H60.3587L64.3488 9.09631V0.695496H66.9591V17.3124Z" fill="white"/>
<path d="M74.5069 17.5011C73.3668 17.5011 72.4509 17.1748 71.7551 16.5261C70.9649 15.7674 70.5679 14.7296 70.5679 13.4166V4.58731C70.5679 3.27432 70.9649 2.2365 71.7551 1.47779C72.4509 0.829157 73.3708 0.502872 74.5069 0.502872C75.643 0.502872 76.5628 0.829157 77.2586 1.47779C78.0488 2.2365 78.4458 3.27432 78.4458 4.58731V13.4166C78.4458 14.7296 78.0488 15.7674 77.2586 16.5261C76.5628 17.1748 75.643 17.5011 74.5069 17.5011ZM74.5069 3.11707C74.0626 3.11707 73.7403 3.21142 73.5319 3.40011C73.2961 3.62026 73.1742 4.0173 73.1742 4.58731V13.4166C73.1742 13.9866 73.2921 14.3837 73.5319 14.6038C73.7364 14.7925 74.0626 14.8869 74.5069 14.8869C74.9511 14.8869 75.2892 14.7925 75.4818 14.6038C75.7176 14.3994 75.8395 14.0024 75.8395 13.4166V4.58731C75.8395 4.00157 75.7216 3.60453 75.4818 3.40011C75.2931 3.21142 74.9668 3.11707 74.5069 3.11707Z" fill="white"/>
</svg>
