<svg width="21" height="20" viewBox="0 0 21 20" fill="none" xmlns="http://www.w3.org/2000/svg">
<path fill-rule="evenodd" clip-rule="evenodd" d="M19.6762 5.8345H15.1899V5.50674C15.1887 1.44584 12.9491 0 10.857 0C8.76495 0 6.52646 1.44584 6.52646 5.50674V5.83217H2.04018L0.71521 20H21L19.675 5.83217L19.6762 5.8345ZM8.31168 5.50674C8.31168 3.14737 9.24148 1.79335 10.857 1.79335C12.476 1.79335 13.4047 3.14621 13.4047 5.50674V5.83217H8.31168V5.50674ZM2.6306 18.2566L3.63013 7.57555H6.52762V8.99H8.31051V7.57787H13.4047V8.99H15.1875V7.57787H18.0862L19.0857 18.2555L2.6306 18.2566Z" fill="white"/>
</svg>
