<svg width="25" height="20" viewBox="0 0 25 20" fill="none" xmlns="http://www.w3.org/2000/svg">
<path d="M6.83865 0.0201721C3.79181 0.245169 1.26059 2.55608 0.787163 5.55604C0.684039 6.2029 0.716851 7.50132 0.852787 8.08257C1.16216 9.40442 1.7434 10.4732 2.76995 11.6075C3.85275 12.8028 6.80583 15.4512 10.2605 18.3246C11.8589 19.6512 12.0698 19.8199 12.2526 19.9137C12.487 20.0355 12.9698 20.0262 13.2136 19.8996C13.4948 19.759 17.3198 16.5575 19.19 14.9028C21.0322 13.2716 22.5838 11.7716 23.0853 11.1388C23.854 10.1685 24.3228 9.21693 24.59 8.08257C24.7259 7.48726 24.7587 6.18884 24.6509 5.53729C24.1775 2.68264 21.9275 0.488916 19.026 0.0623589C18.5151 -0.01264 17.4229 -0.00326538 16.9401 0.0811081C15.9791 0.249857 15.0229 0.638914 14.2214 1.18734C13.9917 1.34672 13.5604 1.70765 13.2604 1.99358L12.7214 2.5092L12.1823 1.99358C11.8823 1.70765 11.4558 1.3514 11.2261 1.19203C9.91829 0.29673 8.44644 -0.0970135 6.83865 0.0201721ZM8.61987 2.33108C9.09799 2.47639 9.66517 2.74826 10.0214 3.00138C10.1527 3.09513 10.6636 3.56856 11.1511 4.05137C11.6433 4.53417 12.112 4.96073 12.2011 5.00761C12.2901 5.04979 12.4823 5.10136 12.637 5.11073C13.1245 5.1576 13.237 5.0826 14.2682 4.07481C14.7698 3.57794 15.2901 3.09513 15.4213 3.00138C15.7682 2.75295 16.3354 2.47639 16.8229 2.33108C17.2166 2.20921 17.301 2.19983 18.0651 2.19983C18.8244 2.19983 18.9182 2.20921 19.2979 2.32639C20.7697 2.78107 21.8666 3.82169 22.3259 5.19979C22.8228 6.69508 22.5134 8.30288 21.4728 9.67161C21.051 10.22 19.551 11.6731 17.8307 13.1872C15.9557 14.8419 12.8058 17.4996 12.7214 17.4996C12.6651 17.4996 10.9823 16.0981 9.25268 14.6122C6.12147 11.9216 4.32618 10.2154 3.759 9.3763C1.84184 6.55446 3.20588 2.98263 6.49178 2.24202C6.70271 2.19514 6.99802 2.17639 7.49489 2.19045C8.09019 2.20452 8.26363 2.22327 8.61987 2.33108Z" fill="white"/>
</svg>
