<svg width="21" height="20" viewBox="0 0 21 20" fill="none" xmlns="http://www.w3.org/2000/svg">
<path d="M12.2197 0C7.40342 0 3.48582 3.9176 3.48582 8.73389C3.48582 10.7336 4.17971 12.6732 5.44583 14.2296L0.952393 18.723L2.22935 20L6.72278 15.5066C8.27531 16.7725 10.2165 17.4651 12.2197 17.4678C17.036 17.4678 20.9536 13.5502 20.9536 8.73389C20.9536 3.9176 17.036 0 12.2197 0ZM12.2197 15.6608C8.40089 15.6608 5.29283 12.5527 5.29283 8.73389C5.29283 4.91507 8.40089 1.80701 12.2197 1.80701C16.0385 1.80701 19.1466 4.91507 19.1466 8.73389C19.1466 12.5527 16.0385 15.6608 12.2197 15.6608Z" fill="white"/>
</svg>
