<svg width="357" height="837" viewBox="0 0 357 837" fill="none" xmlns="http://www.w3.org/2000/svg">
<g opacity="0.05">
<path d="M-110.646 836.708C-341.357 836.708 -529 649.065 -529 418.354C-529 187.643 -341.357 0 -110.646 0C120.065 0 307.708 187.643 307.708 418.354C307.708 649.065 120.065 836.708 -110.646 836.708ZM-110.646 35.1168C-322.009 35.1168 -493.883 206.991 -493.883 418.354C-493.883 629.718 -322.009 801.591 -110.646 801.591C100.718 801.591 272.592 629.718 272.592 418.354C272.592 206.991 100.718 35.1168 -110.646 35.1168Z" fill="#BCBEC0"/>
<path d="M-10.9243 110.253C-180.81 110.253 -319.025 248.467 -319.025 418.353C-319.025 588.239 -180.81 726.454 -10.9243 726.454C158.962 726.454 297.176 588.239 297.176 418.353C297.176 248.467 158.962 110.253 -10.9243 110.253ZM243.109 486.334L156.974 515.223L175.129 604.274L86.0776 586.119L57.1891 672.255L-10.9243 612.092L-79.0378 672.255L-107.926 586.119L-196.977 604.274L-178.823 515.223L-264.958 486.334L-204.796 418.221L-264.958 350.107L-178.823 321.219L-196.977 232.168L-107.926 250.323L-79.0378 164.187L-10.9243 224.349L57.1891 164.187L86.0776 250.323L175.129 232.168L156.974 321.219L243.109 350.107L182.947 418.221L243.109 486.334Z" fill="black"/>
<path d="M-10.9235 51.4163C-213.276 51.4163 -377.861 216.002 -377.861 418.354C-377.861 620.706 -213.276 785.292 -10.9235 785.292C191.429 785.292 356.014 620.706 356.014 418.354C356.014 216.002 191.429 51.4163 -10.9235 51.4163ZM-10.9235 760.644C-199.627 760.644 -353.213 607.057 -353.213 418.354C-353.213 229.651 -199.627 76.0643 -10.9235 76.0643C177.78 76.0643 331.366 229.651 331.366 418.354C331.366 607.057 177.78 760.644 -10.9235 760.644Z" fill="black"/>
</g>
</svg>
