<svg width="20" height="20" viewBox="0 0 20 20" fill="none" xmlns="http://www.w3.org/2000/svg">
<path d="M10 20C4.48527 20 0 15.5147 0 10C0 4.48527 4.48527 0 10 0C15.5147 0 20 4.48527 20 10C20 15.5147 15.5147 20 10 20ZM10 0.839405C4.94774 0.839405 0.839405 4.94774 0.839405 10C0.839405 15.0523 4.94774 19.1606 10 19.1606C15.0523 19.1606 19.1606 15.0523 19.1606 10C19.1606 4.94774 15.0523 0.839405 10 0.839405Z" fill="#BCBEC0"/>
<path d="M9.99984 2.63525C5.93902 2.63525 2.63525 5.93902 2.63525 9.99984C2.63525 14.0607 5.93902 17.3644 9.99984 17.3644C14.0607 17.3644 17.3644 14.0607 17.3644 9.99984C17.3644 5.93902 14.0607 2.63525 9.99984 2.63525ZM16.0721 11.6248L14.0131 12.3153L14.4471 14.4439L12.3185 14.01L11.628 16.0689L9.99984 14.6308L8.37171 16.0689L7.68118 14.01L5.55258 14.4439L5.98654 12.3153L3.92762 11.6248L5.3657 9.99667L3.92762 8.36855L5.98654 7.67802L5.55258 5.54941L7.68118 5.98337L8.37171 3.92445L9.99984 5.36253L11.628 3.92445L12.3185 5.98337L14.4471 5.54941L14.0131 7.67802L16.0721 8.36855L14.634 9.99667L16.0721 11.6248Z" fill="black"/>
<path d="M9.99999 1.229C5.16312 1.229 1.229 5.16312 1.229 9.99999C1.229 14.8369 5.16312 18.771 9.99999 18.771C14.8369 18.771 18.771 14.8369 18.771 9.99999C18.771 5.16312 14.8369 1.229 9.99999 1.229ZM9.99999 18.1818C5.48938 18.1818 1.81817 14.5106 1.81817 9.99999C1.81817 5.48938 5.48938 1.81817 9.99999 1.81817C14.5106 1.81817 18.1818 5.48938 18.1818 9.99999C18.1818 14.5106 14.5106 18.1818 9.99999 18.1818Z" fill="black"/>
</svg>
