<svg width="430" height="837" viewBox="0 0 430 837" fill="none" xmlns="http://www.w3.org/2000/svg">
<g opacity="0.06">
<path d="M416.646 836.708C185.935 836.708 -1.70825 649.065 -1.70825 418.354C-1.70825 187.643 185.935 0 416.646 0C647.357 0 835 187.643 835 418.354C835 649.065 647.357 836.708 416.646 836.708ZM416.646 35.1168C205.282 35.1168 33.4086 206.991 33.4086 418.354C33.4086 629.718 205.282 801.591 416.646 801.591C628.01 801.591 799.883 629.718 799.883 418.354C799.883 206.991 628.01 35.1168 416.646 35.1168Z" fill="#BCBEC0"/>
<path d="M416.644 110.253C246.758 110.253 108.543 248.467 108.543 418.353C108.543 588.239 246.758 726.454 416.644 726.454C586.529 726.454 724.744 588.239 724.744 418.353C724.744 248.467 586.529 110.253 416.644 110.253ZM670.677 486.334L584.542 515.223L602.697 604.274L513.646 586.119L484.757 672.255L416.644 612.092L348.53 672.255L319.642 586.119L230.591 604.274L248.745 515.223L162.61 486.334L222.772 418.221L162.61 350.107L248.745 321.219L230.591 232.168L319.642 250.323L348.53 164.187L416.644 224.349L484.757 164.187L513.646 250.323L602.697 232.168L584.542 321.219L670.677 350.107L610.515 418.221L670.677 486.334Z" fill="black"/>
<path d="M416.644 51.4163C214.292 51.4163 49.7065 216.002 49.7065 418.354C49.7065 620.706 214.292 785.292 416.644 785.292C618.997 785.292 783.582 620.706 783.582 418.354C783.582 216.002 618.997 51.4163 416.644 51.4163ZM416.644 760.644C227.941 760.644 74.3546 607.057 74.3546 418.354C74.3546 229.651 227.941 76.0643 416.644 76.0643C605.348 76.0643 758.934 229.651 758.934 418.354C758.934 607.057 605.348 760.644 416.644 760.644Z" fill="black"/>
</g>
</svg>
