<svg width="38" height="8" viewBox="0 0 38 8" fill="none" xmlns="http://www.w3.org/2000/svg">
<path d="M1.89526 0L0 2H3.79052L1.89526 0Z" fill="black"/>
<path d="M5.68579 0L3.79053 2H7.58105L5.68579 0Z" fill="black"/>
<path d="M9.47632 0L7.58105 2H11.3716L9.47632 0Z" fill="black"/>
<path d="M13.2668 0L11.3716 2H15.1621L13.2668 0Z" fill="black"/>
<path d="M17.0574 0L15.1621 2H18.9526L17.0574 0Z" fill="black"/>
<path d="M20.8479 0L18.9526 2H22.7432L20.8479 0Z" fill="black"/>
<path d="M24.6384 0L22.7432 2H26.5337L24.6384 0Z" fill="black"/>
<path d="M28.429 0L26.5337 2H30.3242L28.429 0Z" fill="black"/>
<path d="M31.8953 0L30 2H33.7905L31.8953 0Z" fill="black"/>
<path d="M35.6858 0L33.7905 2H37.5811L35.6858 0Z" fill="black"/>
<path d="M38 2H0V3H38V2Z" fill="black"/>
<path d="M38 5H0V8H38V5Z" fill="#BCBEC0"/>
</svg>
