<svg width="1440" height="21" viewBox="0 0 1440 21" fill="none" xmlns="http://www.w3.org/2000/svg">
<rect width="1459.2" height="25.93" transform="translate(0 0.5)" fill="#231F20"/>
<path opacity="0.25" d="M121.6 19.97H0V26.43H121.6V19.97Z" fill="white"/>
<path d="M121.6 15.24H0V18.07H121.6V15.24Z" fill="white"/>
<path d="M121.6 8.52002H0V11.35H121.6V8.52002Z" fill="white"/>
<path d="M7.6 0.5L0 8.52H15.2L7.6 0.5Z" fill="white"/>
<path d="M22.8 0.5L15.2 8.52H30.4L22.8 0.5Z" fill="white"/>
<path d="M38 0.5L30.4 8.52H45.6L38 0.5Z" fill="white"/>
<path d="M53.2 0.5L45.6 8.52H60.8L53.2 0.5Z" fill="white"/>
<path d="M68.4 0.5L60.8 8.52H76L68.4 0.5Z" fill="white"/>
<path d="M83.6 0.5L76 8.52H91.2L83.6 0.5Z" fill="white"/>
<path d="M98.8 0.5L91.2 8.52H106.4L98.8 0.5Z" fill="white"/>
<path d="M114 0.5L106.4 8.52H121.6L114 0.5Z" fill="white"/>
<path opacity="0.25" d="M243.2 19.97H121.6V26.43H243.2V19.97Z" fill="white"/>
<path d="M243.2 15.24H121.6V18.07H243.2V15.24Z" fill="white"/>
<path d="M243.2 8.52002H121.6V11.35H243.2V8.52002Z" fill="white"/>
<path d="M129.2 0.5L121.6 8.52H136.8L129.2 0.5Z" fill="white"/>
<path d="M144.4 0.5L136.8 8.52H152L144.4 0.5Z" fill="white"/>
<path d="M159.6 0.5L152 8.52H167.2L159.6 0.5Z" fill="white"/>
<path d="M174.8 0.5L167.2 8.52H182.4L174.8 0.5Z" fill="white"/>
<path d="M190 0.5L182.4 8.52H197.6L190 0.5Z" fill="white"/>
<path d="M205.2 0.5L197.6 8.52H212.8L205.2 0.5Z" fill="white"/>
<path d="M220.4 0.5L212.8 8.52H228L220.4 0.5Z" fill="white"/>
<path d="M235.6 0.5L228 8.52H243.2L235.6 0.5Z" fill="white"/>
<path opacity="0.25" d="M364.8 19.97H243.2V26.43H364.8V19.97Z" fill="white"/>
<path d="M364.8 15.24H243.2V18.07H364.8V15.24Z" fill="white"/>
<path d="M364.8 8.52002H243.2V11.35H364.8V8.52002Z" fill="white"/>
<path d="M250.8 0.5L243.2 8.52H258.4L250.8 0.5Z" fill="white"/>
<path d="M266 0.5L258.4 8.52H273.6L266 0.5Z" fill="white"/>
<path d="M281.2 0.5L273.6 8.52H288.8L281.2 0.5Z" fill="white"/>
<path d="M296.4 0.5L288.8 8.52H304L296.4 0.5Z" fill="white"/>
<path d="M311.6 0.5L304 8.52H319.2L311.6 0.5Z" fill="white"/>
<path d="M326.8 0.5L319.2 8.52H334.4L326.8 0.5Z" fill="white"/>
<path d="M342 0.5L334.4 8.52H349.6L342 0.5Z" fill="white"/>
<path d="M357.2 0.5L349.6 8.52H364.8L357.2 0.5Z" fill="white"/>
<path opacity="0.25" d="M486.4 19.97H364.8V26.43H486.4V19.97Z" fill="white"/>
<path d="M486.4 15.24H364.8V18.07H486.4V15.24Z" fill="white"/>
<path d="M486.4 8.52002H364.8V11.35H486.4V8.52002Z" fill="white"/>
<path d="M372.4 0.5L364.8 8.52H380L372.4 0.5Z" fill="white"/>
<path d="M387.6 0.5L380 8.52H395.2L387.6 0.5Z" fill="white"/>
<path d="M402.8 0.5L395.2 8.52H410.4L402.8 0.5Z" fill="white"/>
<path d="M418 0.5L410.4 8.52H425.6L418 0.5Z" fill="white"/>
<path d="M433.2 0.5L425.6 8.52H440.8L433.2 0.5Z" fill="white"/>
<path d="M448.4 0.5L440.8 8.52H456L448.4 0.5Z" fill="white"/>
<path d="M463.6 0.5L456 8.52H471.2L463.6 0.5Z" fill="white"/>
<path d="M478.8 0.5L471.2 8.52H486.4L478.8 0.5Z" fill="white"/>
<path opacity="0.25" d="M608 19.97H486.4V26.43H608V19.97Z" fill="white"/>
<path d="M608 15.24H486.4V18.07H608V15.24Z" fill="white"/>
<path d="M608 8.52002H486.4V11.35H608V8.52002Z" fill="white"/>
<path d="M494 0.5L486.4 8.52H501.6L494 0.5Z" fill="white"/>
<path d="M509.2 0.5L501.6 8.52H516.8L509.2 0.5Z" fill="white"/>
<path d="M524.4 0.5L516.8 8.52H532L524.4 0.5Z" fill="white"/>
<path d="M539.6 0.5L532 8.52H547.2L539.6 0.5Z" fill="white"/>
<path d="M554.8 0.5L547.2 8.52H562.4L554.8 0.5Z" fill="white"/>
<path d="M570 0.5L562.4 8.52H577.6L570 0.5Z" fill="white"/>
<path d="M585.2 0.5L577.6 8.52H592.8L585.2 0.5Z" fill="white"/>
<path d="M600.4 0.5L592.8 8.52H608L600.4 0.5Z" fill="white"/>
<path opacity="0.25" d="M729.6 19.97H608V26.43H729.6V19.97Z" fill="white"/>
<path d="M729.6 15.24H608V18.07H729.6V15.24Z" fill="white"/>
<path d="M729.6 8.52002H608V11.35H729.6V8.52002Z" fill="white"/>
<path d="M615.6 0.5L608 8.52H623.2L615.6 0.5Z" fill="white"/>
<path d="M630.8 0.5L623.2 8.52H638.4L630.8 0.5Z" fill="white"/>
<path d="M646 0.5L638.4 8.52H653.6L646 0.5Z" fill="white"/>
<path d="M661.2 0.5L653.6 8.52H668.8L661.2 0.5Z" fill="white"/>
<path d="M676.4 0.5L668.8 8.52H684L676.4 0.5Z" fill="white"/>
<path d="M691.6 0.5L684 8.52H699.2L691.6 0.5Z" fill="white"/>
<path d="M706.8 0.5L699.2 8.52H714.4L706.8 0.5Z" fill="white"/>
<path d="M722 0.5L714.4 8.52H729.6L722 0.5Z" fill="white"/>
<path opacity="0.25" d="M851.2 19.97H729.6V26.43H851.2V19.97Z" fill="white"/>
<path d="M851.2 15.24H729.6V18.07H851.2V15.24Z" fill="white"/>
<path d="M851.2 8.52002H729.6V11.35H851.2V8.52002Z" fill="white"/>
<path d="M737.2 0.5L729.6 8.52H744.8L737.2 0.5Z" fill="white"/>
<path d="M752.4 0.5L744.8 8.52H760L752.4 0.5Z" fill="white"/>
<path d="M767.6 0.5L760 8.52H775.2L767.6 0.5Z" fill="white"/>
<path d="M782.8 0.5L775.2 8.52H790.4L782.8 0.5Z" fill="white"/>
<path d="M798 0.5L790.4 8.52H805.6L798 0.5Z" fill="white"/>
<path d="M813.2 0.5L805.6 8.52H820.8L813.2 0.5Z" fill="white"/>
<path d="M828.4 0.5L820.8 8.52H836L828.4 0.5Z" fill="white"/>
<path d="M843.6 0.5L836 8.52H851.2L843.6 0.5Z" fill="white"/>
<path opacity="0.25" d="M972.8 19.97H851.2V26.43H972.8V19.97Z" fill="white"/>
<path d="M972.8 15.24H851.2V18.07H972.8V15.24Z" fill="white"/>
<path d="M972.8 8.52002H851.2V11.35H972.8V8.52002Z" fill="white"/>
<path d="M858.8 0.5L851.2 8.52H866.4L858.8 0.5Z" fill="white"/>
<path d="M874 0.5L866.4 8.52H881.6L874 0.5Z" fill="white"/>
<path d="M889.2 0.5L881.6 8.52H896.8L889.2 0.5Z" fill="white"/>
<path d="M904.4 0.5L896.8 8.52H912L904.4 0.5Z" fill="white"/>
<path d="M919.6 0.5L912 8.52H927.2L919.6 0.5Z" fill="white"/>
<path d="M934.8 0.5L927.2 8.52H942.4L934.8 0.5Z" fill="white"/>
<path d="M950 0.5L942.4 8.52H957.6L950 0.5Z" fill="white"/>
<path d="M965.2 0.5L957.6 8.52H972.8L965.2 0.5Z" fill="white"/>
<path opacity="0.25" d="M1094.4 19.97H972.8V26.43H1094.4V19.97Z" fill="white"/>
<path d="M1094.4 15.24H972.8V18.07H1094.4V15.24Z" fill="white"/>
<path d="M1094.4 8.52002H972.8V11.35H1094.4V8.52002Z" fill="white"/>
<path d="M980.4 0.5L972.8 8.52H988L980.4 0.5Z" fill="white"/>
<path d="M995.6 0.5L988 8.52H1003.2L995.6 0.5Z" fill="white"/>
<path d="M1010.8 0.5L1003.2 8.52H1018.4L1010.8 0.5Z" fill="white"/>
<path d="M1026 0.5L1018.4 8.52H1033.6L1026 0.5Z" fill="white"/>
<path d="M1041.2 0.5L1033.6 8.52H1048.8L1041.2 0.5Z" fill="white"/>
<path d="M1056.4 0.5L1048.8 8.52H1064L1056.4 0.5Z" fill="white"/>
<path d="M1071.6 0.5L1064 8.52H1079.2L1071.6 0.5Z" fill="white"/>
<path d="M1086.8 0.5L1079.2 8.52H1094.4L1086.8 0.5Z" fill="white"/>
<path opacity="0.25" d="M1216 19.97H1094.4V26.43H1216V19.97Z" fill="white"/>
<path d="M1216 15.24H1094.4V18.07H1216V15.24Z" fill="white"/>
<path d="M1216 8.52002H1094.4V11.35H1216V8.52002Z" fill="white"/>
<path d="M1102 0.5L1094.4 8.52H1109.6L1102 0.5Z" fill="white"/>
<path d="M1117.2 0.5L1109.6 8.52H1124.8L1117.2 0.5Z" fill="white"/>
<path d="M1132.4 0.5L1124.8 8.52H1140L1132.4 0.5Z" fill="white"/>
<path d="M1147.6 0.5L1140 8.52H1155.2L1147.6 0.5Z" fill="white"/>
<path d="M1162.8 0.5L1155.2 8.52H1170.4L1162.8 0.5Z" fill="white"/>
<path d="M1178 0.5L1170.4 8.52H1185.6L1178 0.5Z" fill="white"/>
<path d="M1193.2 0.5L1185.6 8.52H1200.8L1193.2 0.5Z" fill="white"/>
<path d="M1208.4 0.5L1200.8 8.52H1216L1208.4 0.5Z" fill="white"/>
<path opacity="0.25" d="M1337.6 19.97H1216V26.43H1337.6V19.97Z" fill="white"/>
<path d="M1337.6 15.24H1216V18.07H1337.6V15.24Z" fill="white"/>
<path d="M1337.6 8.52002H1216V11.35H1337.6V8.52002Z" fill="white"/>
<path d="M1223.6 0.5L1216 8.52H1231.2L1223.6 0.5Z" fill="white"/>
<path d="M1238.8 0.5L1231.2 8.52H1246.4L1238.8 0.5Z" fill="white"/>
<path d="M1254 0.5L1246.4 8.52H1261.6L1254 0.5Z" fill="white"/>
<path d="M1269.2 0.5L1261.6 8.52H1276.8L1269.2 0.5Z" fill="white"/>
<path d="M1284.4 0.5L1276.8 8.52H1292L1284.4 0.5Z" fill="white"/>
<path d="M1299.6 0.5L1292 8.52H1307.2L1299.6 0.5Z" fill="white"/>
<path d="M1314.8 0.5L1307.2 8.52H1322.4L1314.8 0.5Z" fill="white"/>
<path d="M1330 0.5L1322.4 8.52H1337.6L1330 0.5Z" fill="white"/>
<path opacity="0.25" d="M1459.2 19.97H1337.6V26.43H1459.2V19.97Z" fill="white"/>
<path d="M1459.2 15.24H1337.6V18.07H1459.2V15.24Z" fill="white"/>
<path d="M1459.2 8.52002H1337.6V11.35H1459.2V8.52002Z" fill="white"/>
<path d="M1345.2 0.5L1337.6 8.52H1352.8L1345.2 0.5Z" fill="white"/>
<path d="M1360.4 0.5L1352.8 8.52H1368L1360.4 0.5Z" fill="white"/>
<path d="M1375.6 0.5L1368 8.52H1383.2L1375.6 0.5Z" fill="white"/>
<path d="M1390.8 0.5L1383.2 8.52H1398.4L1390.8 0.5Z" fill="white"/>
<path d="M1406 0.5L1398.4 8.52H1413.6L1406 0.5Z" fill="white"/>
<path d="M1421.2 0.5L1413.6 8.52H1428.8L1421.2 0.5Z" fill="white"/>
<path d="M1436.4 0.5L1428.8 8.52H1444L1436.4 0.5Z" fill="white"/>
</svg>
