<svg width="430" height="26" viewBox="0 0 430 26" fill="none" xmlns="http://www.w3.org/2000/svg">
<rect width="1459.2" height="25.93" fill="#231F20"/>
<path opacity="0.25" d="M121.6 19.47H0V25.93H121.6V19.47Z" fill="white"/>
<path d="M121.6 14.74H0V17.57H121.6V14.74Z" fill="white"/>
<path d="M121.6 8.02002H0V10.85H121.6V8.02002Z" fill="white"/>
<path d="M7.6 0L0 8.02H15.2L7.6 0Z" fill="white"/>
<path d="M22.8 0L15.2 8.02H30.4L22.8 0Z" fill="white"/>
<path d="M38 0L30.4 8.02H45.6L38 0Z" fill="white"/>
<path d="M53.2 0L45.6 8.02H60.8L53.2 0Z" fill="white"/>
<path d="M68.4 0L60.8 8.02H76L68.4 0Z" fill="white"/>
<path d="M83.6 0L76 8.02H91.2L83.6 0Z" fill="white"/>
<path d="M98.8 0L91.2 8.02H106.4L98.8 0Z" fill="white"/>
<path d="M114 0L106.4 8.02H121.6L114 0Z" fill="white"/>
<path opacity="0.25" d="M243.2 19.47H121.6V25.93H243.2V19.47Z" fill="white"/>
<path d="M243.2 14.74H121.6V17.57H243.2V14.74Z" fill="white"/>
<path d="M243.2 8.02002H121.6V10.85H243.2V8.02002Z" fill="white"/>
<path d="M129.2 0L121.6 8.02H136.8L129.2 0Z" fill="white"/>
<path d="M144.4 0L136.8 8.02H152L144.4 0Z" fill="white"/>
<path d="M159.6 0L152 8.02H167.2L159.6 0Z" fill="white"/>
<path d="M174.8 0L167.2 8.02H182.4L174.8 0Z" fill="white"/>
<path d="M190 0L182.4 8.02H197.6L190 0Z" fill="white"/>
<path d="M205.2 0L197.6 8.02H212.8L205.2 0Z" fill="white"/>
<path d="M220.4 0L212.8 8.02H228L220.4 0Z" fill="white"/>
<path d="M235.6 0L228 8.02H243.2L235.6 0Z" fill="white"/>
<path opacity="0.25" d="M364.8 19.47H243.2V25.93H364.8V19.47Z" fill="white"/>
<path d="M364.8 14.74H243.2V17.57H364.8V14.74Z" fill="white"/>
<path d="M364.8 8.02002H243.2V10.85H364.8V8.02002Z" fill="white"/>
<path d="M250.8 0L243.2 8.02H258.4L250.8 0Z" fill="white"/>
<path d="M266 0L258.4 8.02H273.6L266 0Z" fill="white"/>
<path d="M281.2 0L273.6 8.02H288.8L281.2 0Z" fill="white"/>
<path d="M296.4 0L288.8 8.02H304L296.4 0Z" fill="white"/>
<path d="M311.6 0L304 8.02H319.2L311.6 0Z" fill="white"/>
<path d="M326.8 0L319.2 8.02H334.4L326.8 0Z" fill="white"/>
<path d="M342 0L334.4 8.02H349.6L342 0Z" fill="white"/>
<path d="M357.2 0L349.6 8.02H364.8L357.2 0Z" fill="white"/>
<path opacity="0.25" d="M486.4 19.47H364.8V25.93H486.4V19.47Z" fill="white"/>
<path d="M486.4 14.74H364.8V17.57H486.4V14.74Z" fill="white"/>
<path d="M486.4 8.02002H364.8V10.85H486.4V8.02002Z" fill="white"/>
<path d="M372.4 0L364.8 8.02H380L372.4 0Z" fill="white"/>
<path d="M387.6 0L380 8.02H395.2L387.6 0Z" fill="white"/>
<path d="M402.8 0L395.2 8.02H410.4L402.8 0Z" fill="white"/>
<path d="M418 0L410.4 8.02H425.6L418 0Z" fill="white"/>
<path d="M433.2 0L425.6 8.02H440.8L433.2 0Z" fill="white"/>
</svg>
