<svg width="30" height="48" viewBox="0 0 30 48" fill="none" xmlns="http://www.w3.org/2000/svg">
<path d="M24 48.405C10.7647 48.405 0 37.6404 0 24.405C0 11.1697 10.7647 0.405029 24 0.405029C37.2354 0.405029 48 11.1697 48 24.405C48 37.6404 37.2354 48.405 24 48.405ZM24 2.4196C11.8746 2.4196 2.01457 12.2796 2.01457 24.405C2.01457 36.5305 11.8746 46.3905 24 46.3905C36.1254 46.3905 45.9854 36.5305 45.9854 24.405C45.9854 12.2796 36.1254 2.4196 24 2.4196Z" fill="#BCBEC0"/>
<path d="M24.0001 6.72998C14.2541 6.72998 6.32507 14.659 6.32507 24.405C6.32507 34.1509 14.2541 42.08 24.0001 42.08C33.746 42.08 41.6751 34.1509 41.6751 24.405C41.6751 14.659 33.746 6.72998 24.0001 6.72998ZM38.5734 28.3049L33.632 29.9622L34.6735 35.0708L29.5649 34.0293L27.9076 38.9707L24.0001 35.5193L20.0926 38.9707L18.4353 34.0293L13.3267 35.0708L14.3682 29.9622L9.42675 28.3049L12.8781 24.3974L9.42675 20.4899L14.3682 18.8326L13.3267 13.724L18.4353 14.7655L20.0926 9.82406L24.0001 13.2754L27.9076 9.82406L29.5649 14.7655L34.6735 13.724L33.632 18.8326L38.5734 20.4899L35.122 24.3974L38.5734 28.3049Z" fill="#231F20"/>
<path d="M24.0001 3.35474C12.3916 3.35474 2.94971 12.7966 2.94971 24.4051C2.94971 36.0136 12.3916 45.4555 24.0001 45.4555C35.6086 45.4555 45.0504 36.0136 45.0504 24.4051C45.0504 12.7966 35.6086 3.35474 24.0001 3.35474ZM24.0001 44.0415C13.1746 44.0415 4.36371 35.2306 4.36371 24.4051C4.36371 13.5796 13.1746 4.76874 24.0001 4.76874C34.8255 4.76874 43.6364 13.5796 43.6364 24.4051C43.6364 35.2306 34.8255 44.0415 24.0001 44.0415Z" fill="#231F20"/>
</svg>
