<svg width="21" height="17" viewBox="0 0 21 17" fill="none" xmlns="http://www.w3.org/2000/svg">
<path d="M1.28754 6.75659L0.339905 7.75659H2.23517L1.28754 6.75659Z" fill="black"/>
<path d="M3.1828 6.75659L2.23517 7.75659H4.13043L3.1828 6.75659Z" fill="black"/>
<path d="M5.07806 6.75659L4.13043 7.75659H6.02569L5.07806 6.75659Z" fill="black"/>
<path d="M6.97333 6.75659L6.0257 7.75659H7.92096L6.97333 6.75659Z" fill="black"/>
<path d="M8.86859 6.75659L7.92096 7.75659H9.81622L8.86859 6.75659Z" fill="black"/>
<path d="M10.7639 6.75659L9.81622 7.75659H11.7115L10.7639 6.75659Z" fill="black"/>
<path d="M12.6591 6.75659L11.7115 7.75659H13.6067L12.6591 6.75659Z" fill="black"/>
<path d="M14.5544 6.75659L13.6068 7.75659H15.502L14.5544 6.75659Z" fill="black"/>
<path d="M16.2875 6.75659L15.3399 7.75659H17.2352L16.2875 6.75659Z" fill="black"/>
<path d="M18.1828 6.75659L17.2352 7.75659H19.1304L18.1828 6.75659Z" fill="black"/>
<path d="M19.3399 7.75659H0.339905V8.25659H19.3399V7.75659Z" fill="black"/>
<path d="M19.3399 8.75659H0.339905V9.75659H19.3399V8.75659Z" fill="#BCBEC0"/>
<rect x="11.8197" y="1.11011" width="0.5" height="11" transform="rotate(-45 11.8197 1.11011)" fill="#231F20"/>
<rect x="10.759" y="2.17078" width="1" height="11" transform="rotate(-45 10.759 2.17078)" fill="#BCBEC0"/>
<rect x="11.5268" y="14.8883" width="0.5" height="11" transform="rotate(-135 11.5268 14.8883)" fill="#231F20"/>
<rect x="12.5874" y="15.949" width="1" height="11" transform="rotate(-135 12.5874 15.949)" fill="#BCBEC0"/>
</svg>
